PathFileType	4	(X/Y/Z)	/home/abdul/Desktop/myosuite/custom_workspace/IK/output/S11_12_3.trc
DataRate	CameraRate	NumFrames	NumMarkers	Units	OrigDataRate	OrigDataStartFrame	OrigNumFrames
200.0	200.0	28	3	mm	200.0	1483	1976
Frame#	Time	V_Shoulder			V_Elbow			V_Wrist		
		X1	Y1	Z1	X2	Y2	Z2	X3	Y3	Z3

1483	7.41	-98.73353886141818	527.9743891275103	283.71494378846415	-250.02869512999544	343.13659456703385	19.55922418369381	-109.31660956689232	134.85452635597352	70.19659764069429
1484	7.415	-98.73092904556643	528.0001329236662	283.68771473848864	-250.14337473658844	343.2479810602247	19.525030685643298	-109.4828135994751	134.91411202809144	70.25759645531599
1485	7.42	-98.72855686006835	528.0235699830258	283.66001142530683	-250.26034174740693	343.3580797465978	19.49084825852671	-109.65162802777712	134.97147363659818	70.31562822586997
1486	7.425	-98.72640808528853	528.0446164859148	283.63182558018417	-250.37949679205747	343.4667344658651	19.45667582145014	-109.82284961198911	135.02656233247814	70.37073195491661
1487	7.43	-98.72446893888956	528.0631924427715	283.6031492558718	-250.50073732077684	343.5737909485468	19.42251242752632	-109.99626816688652	135.0793363128848	70.42295651585411
1488	7.435	-98.7227260641422	528.0792217749594	283.5739748606102	-250.62395787577998	343.67909706897194	19.38835731679524	-110.1716669645989	135.12976086892434	70.472360325321
1489	7.44	-98.7211665167171	528.0926323904433	283.5442951949885	-250.7490503709321	343.7825030980299	19.354209973989555	-110.34882316053458	135.17780841374815	70.51901099132081
1490	7.445	-98.7197777500536	528.1033562542508	283.51410349163103	-250.87590437903592	343.8838619551167	19.320070191464758	-110.52750824208188	135.22345849061003	70.56298493953605
1491	7.45	-98.71854759940727	528.1113294536425	283.4833934576646	-251.00440742605878	343.9830294587342	19.285938137629127	-110.70748849971778	135.26669776060183	70.60436702040039
1492	7.455	-98.71746426468535	528.1164922579386	283.4521593199025	-251.13444529166077	344.0798645752159	19.251814431221874	-110.88852552016348	135.30751996984282	70.64325009957955
1493	7.46	-98.71651629218373	528.1187891729506	283.4203958726619	-251.265902315424	344.1742296650649	19.217700221798683	-111.0703767012304	135.34592589596048	70.67973463457807
1494	7.465	-98.71569255534689	528.1181689899845	283.3880985281152	-251.39866170822282	344.2659907264124	19.183597276791566	-111.25279578800092	135.38192327376453	70.71392824023508
1495	7.47	-98.71498223467545	528.114584829391	283.35526336905315	-251.53260586821665	344.3550176351117	19.149508075514554	-111.43553342998382	135.41552670008372	70.7459452459019
1496	7.475	-98.71437479691315	528.1079941786523	283.3218872039251	-251.66761670098794	344.4411843810082	19.115435910487385	-111.6183377588747	135.44675751780193	70.7759062471055
1497	7.48	-98.71385997364796	528.0983589249986	283.2879676239972	-251.8035759433885	344.52436929993394	19.081384996445657	-111.80095498653553	135.475643679201	70.80393765449539
1498	7.485	-98.7134277394669	528.0856453825693	283.25350306245593	-251.94036549069835	344.6044553009973	19.04736058739791	-111.98313002278526	135.50221958879015	70.83017124284865
1499	7.49	-98.71306828980794	528.069824314131	283.2184928552648	-252.07786772673788	344.681330088751	19.01336910207667	-112.16460711256394	135.52652592587378	70.85474370286751
1500	7.495	-98.71277201865472	528.0508709473855	283.18293730356413	-252.21596585661058	344.75488637983796	18.979418258111544	-112.34513049199589	135.54860944718553	70.87779619844774
1501	7.5	-98.71252949622287	528.0287649859021	283.1468377373888	-252.35454424178533	344.8250221137321	18.945517215228	-112.52444506283304	135.56852276999192	70.89947393202566
1502	7.505	-98.71233144678807	528.0034906147207	283.1101965804598	-252.49348873725603	344.8916406572034	18.911676727744407	-112.70229708470727	135.58632413614538	70.91992572052486
1503	7.51	-98.71216872680797	527.9750365006811	283.0730174157923	-252.63268703054166	344.9546510021554	18.877909306602675	-112.87843488456069	135.60207715764406	70.93930358432439
1504	7.515	-98.71203230348969	527.943395787538	283.0353050518465	-252.7720289823089	345.01396795649566	18.84422939112379	-113.0526095825544	135.61585054433417	70.9577623515575
1505	7.52	-98.7119132339552	527.9085660859319	282.99706558893257	-252.9114069684146	345.06951232771576	18.810653530628507	-113.22457583368057	135.62771781446767	70.97545927992502
1506	7.525	-98.71180264515563	527.8705494582914	282.95830648557063	-253.05071622317428	345.12121109887227	18.777200576005733	-113.3940925842198	135.63775698890618	70.99255369807143
1507	7.53	-98.71169171468442	527.829352398746	282.91903662449005	-253.189855183666	345.1689975966729	18.743891881246505	-113.56092384209393	135.64605026983847	71.00920666842447
1508	7.535	-98.7115716526363	527.7849858081369	282.87926637794504	-253.3287258348766	345.2128116513884	18.71075151488947	-113.72483946006747	135.6526837049543	71.0255806732432
1509	7.54	-98.7114336846567	527.7374649642185	282.83900767201135	-253.4672340554872	345.25259974832215	18.67780648124574	-113.88561593064557	135.65774683809278	71.04183932545368
1510	7.545	-98.71126903632205	527.6868094871411	282.7982740495183	-253.60528996407982	345.2883151705841	18.645086951185924	-114.04303719140586	135.6613323474526	71.0581471056783
